# xmcd
#
# Track frame offsets: 
#        150
#        16573
#        38173
#        59960
#        79518
#
# Disc length: 1291 seconds
#
# Revision: 0
# Processed by: cddbd v1.5.2PL0 Copyright (c) Steve Scherf et al.
# Submitted via: ExactAudioCopy v0.90a11
#
DISCID=33050905
DTITLE=Jasmine Brann - On a Personal Note
DYEAR=1900
DGENRE=
TTITLE0=God Knows Me Well
TTITLE1=Found Your Love
TTITLE2=Peace Be Still
TTITLE3=Living Faith
TTITLE4=Dios Sabe Todo
EXTD=
EXTT0=
EXTT1=
EXTT2=
EXTT3=
EXTT4=
PLAYORDER=
